<svg xmlns="http://www.w3.org/2000/svg" viewBox="0 0 200 200">
<defs><radialGradient id="g" cx="50%" cy="35%"><stop offset="0" stop-color="#a855f7"/><stop offset="1" stop-color="#05070d"/></radialGradient><filter id="glow"><feGaussianBlur stdDeviation="4" result="b"/><feMerge><feMergeNode in="b"/><feMergeNode in="SourceGraphic"/></feMerge></filter></defs>
<rect width="200" height="200" rx="38" fill="#05070d"/><circle cx="100" cy="100" r="88" fill="url(#g)" opacity=".34"/><path d="M100 8 L102 42 L109 42 Z" fill="#a855f7" opacity=".65" transform="rotate(0 100 100)"/><path d="M100 8 L102 42 L109 42 Z" fill="#a855f7" opacity=".65" transform="rotate(45 100 100)"/><path d="M100 8 L102 42 L109 42 Z" fill="#a855f7" opacity=".65" transform="rotate(90 100 100)"/><path d="M100 8 L102 42 L109 42 Z" fill="#a855f7" opacity=".65" transform="rotate(135 100 100)"/><path d="M100 8 L102 42 L109 42 Z" fill="#a855f7" opacity=".65" transform="rotate(180 100 100)"/><path d="M100 8 L102 42 L109 42 Z" fill="#a855f7" opacity=".65" transform="rotate(225 100 100)"/><path d="M100 8 L102 42 L109 42 Z" fill="#a855f7" opacity=".65" transform="rotate(270 100 100)"/><path d="M100 8 L102 42 L109 42 Z" fill="#a855f7" opacity=".65" transform="rotate(315 100 100)"/>
<circle cx="100" cy="102" r="70" fill="#0b1020" stroke="#a855f7" stroke-width="5" filter="url(#glow)"/><path d="M50 88 Q100 24 150 88 L142 108 Q100 82 58 108 Z" fill="#111827" stroke="#a855f7" stroke-width="4"/>
<circle cx="100" cy="98" r="42" fill="#20283a" stroke="#ffffff22" stroke-width="3"/>
<path d="M70 98 Q100 130 130 98" fill="#121826" opacity=".8"/><circle cx="84" cy="92" r="5" fill="#a855f7"/><circle cx="116" cy="92" r="5" fill="#a855f7"/>
<text x="100" y="145" text-anchor="middle" font-size="28" font-family="Arial Black" fill="#fff">A</text>
<circle cx="100" cy="100" r="92" fill="none" stroke="#a855f7" stroke-width="4" stroke-dasharray="12 8"/>
</svg>